<?xml version="1.0" encoding="UTF-8"?>
<svg version="1.1" xmlns="http://www.w3.org/2000/svg" width="1080" height="1080">
<path d="M0 0 C356.4 0 712.8 0 1080 0 C1080 356.4 1080 712.8 1080 1080 C723.6 1080 367.2 1080 0 1080 C0 723.6 0 367.2 0 0 Z " fill="#1C6DD4" transform="translate(0,0)"/>
<path d="M0 0 C0.68916504 0.31839844 1.37833008 0.63679688 2.08837891 0.96484375 C36.12715948 17.03801763 58.47536026 49.0362089 71.296875 83.484375 C86.2914683 127.12329679 86.62767788 181.277359 89.73242188 227.10107422 C89.98694391 230.80975751 90.26312992 234.5161086 90.546875 238.22265625 C93.39773971 276.08786131 94.33299778 313.88956265 94.26074219 351.85546875 C94.24928433 357.93805452 94.25616581 364.02046641 94.26763153 370.10304642 C94.37259645 435.8943281 94.37259645 435.8943281 91 452 C90.79281486 454.02483437 90.61453175 456.05272755 90.45703125 458.08203125 C85.85827414 513.74462333 75.55787096 569.67746229 59.79980469 623.26806641 C58.99959527 626.00138247 58.21917432 628.73958555 57.4453125 631.48046875 C55.00776803 640.11063021 52.50972301 648.72149166 49.9375 657.3125 C49.71634521 658.05153564 49.49519043 658.79057129 49.26733398 659.55200195 C48.51870637 662.0369061 47.76102983 664.5188641 47 667 C46.64832764 668.14694336 46.29665527 669.29388672 45.93432617 670.47558594 C34.2689287 708.2819852 20.48510898 745.0201748 4 781 C3.38729248 782.33925537 3.38729248 782.33925537 2.76220703 783.70556641 C-17.51856004 827.81304599 -43.46288754 871.59564591 -75.50390625 908.23291016 C-76.64590005 909.58175989 -77.75776323 910.95617755 -78.85546875 912.34130859 C-84.67330857 919.65756183 -90.98230766 926.29089247 -97.61035156 932.87109375 C-99.37280238 934.62281575 -101.12428568 936.38499428 -102.875 938.1484375 C-109.61051448 944.89217735 -116.51625943 951.08693966 -124 957 C-125.27127388 958.05991218 -126.53867163 959.1245042 -127.80078125 960.1953125 C-187.81510215 1010.52527408 -264.35154994 1041.21978239 -343.11767578 1034.69970703 C-350.50804781 1033.9139232 -357.74987453 1032.61963021 -365 1031 C-365.9787207 1030.78569336 -366.95744141 1030.57138672 -367.96582031 1030.35058594 C-408.83096038 1021.14889756 -444.00041839 1000.95393286 -474 972 C-474.67498535 971.35224609 -475.3499707 970.70449219 -476.04541016 970.03710938 C-484.97443316 961.4287809 -493.37159046 952.72224857 -500.72607422 942.72265625 C-502.02634022 940.96438165 -503.3557982 939.23153929 -504.69140625 937.5 C-534.16688772 898.88964214 -553.31743463 849.55385917 -564.42431641 802.42382812 C-565.07655118 799.67769292 -565.76381915 796.94116521 -566.44921875 794.203125 C-572.46687622 769.68836647 -575.72959526 744.74089732 -578.9765625 719.73828125 C-579.66304044 714.47996727 -580.38831401 709.228575 -581.1484375 703.98046875 C-586.53975012 666.63171317 -590.43105821 629.09958367 -594.25 591.5625 C-594.37478729 590.33594696 -594.49957458 589.10939392 -594.62814331 587.84567261 C-595.98868487 574.43210363 -597.29299219 561.01535078 -598.49511719 547.58666992 C-598.94866688 542.53306405 -599.42355746 537.48162229 -599.90209961 532.43032837 C-602.3577442 506.49435743 -604.68210262 480.60024393 -605.78222656 454.56713867 C-605.9448136 451.90395569 -606.1778904 449.29697798 -606.47045898 446.6484375 C-607.17179232 439.8410335 -607.4282606 433.01105155 -607.72480202 426.17683411 C-607.83519823 423.63408635 -607.94900441 421.09150999 -608.06364441 418.5489502 C-608.22878727 414.88233996 -608.39276669 411.21568053 -608.5559082 407.54898071 C-611.11028511 350.28303573 -613.88551529 293.04089738 -618.75323486 235.91772461 C-619.08379296 232.00924096 -619.40380779 228.09991938 -619.72427368 224.19059753 C-621.24725705 205.67339562 -622.93670319 187.19740312 -625.06298828 168.73901367 C-629.83251845 127.29505013 -630.14128339 87.10357041 -602.91601562 52.70605469 C-601.62667076 51.12314491 -600.31949583 49.55784689 -599 48 C-598.35224609 47.23260498 -598.35224609 47.23260498 -597.69140625 46.44970703 C-574.66228296 19.51690817 -541.46146427 0.68124334 -506 -3 C-497.32785839 -3.53506967 -488.67522342 -3.38083615 -480 -3 C-479.11505859 -2.96132813 -478.23011719 -2.92265625 -477.31835938 -2.8828125 C-445.58764095 -1.19050752 -417.41876575 13.07193227 -395 35 C-393.91138672 35.99580078 -393.91138672 35.99580078 -392.80078125 37.01171875 C-370.35228143 58.00311513 -357.6619155 89.61273546 -353.515625 119.5234375 C-353.38998672 120.41800659 -353.26434845 121.31257568 -353.13490295 122.23425293 C-351.58257923 133.6222381 -350.51818008 145.05960904 -349.4375 156.5 C-349.22765377 158.6836361 -349.01736847 160.86723005 -348.80664062 163.05078125 C-348.19847943 169.36662723 -347.59839997 175.68322279 -347 182 C-346.64621164 185.72920268 -346.29197733 189.45836275 -345.9375 193.1875 C-345.85551361 194.05165527 -345.77352722 194.91581055 -345.6890564 195.80615234 C-345.2259694 200.67448169 -344.74643638 205.54079191 -344.25390625 210.40625 C-342.0038967 233.14285217 -340.77379767 255.92398488 -339.55342102 278.73548889 C-339.1581325 286.12018983 -338.74772393 293.50380939 -338.3203125 300.88671875 C-336.80037459 327.19301286 -335.3838854 353.50401652 -333.99487209 379.81749153 C-331.74384508 422.69497879 -331.74384508 422.69497879 -329.3125 465.5625 C-329.23056396 466.97914444 -329.23056396 466.97914444 -329.14697266 468.42440796 C-328.55276999 478.64892173 -327.77715902 488.83544632 -326.77139282 499.02793884 C-326.15456329 505.28778633 -325.60866343 511.55034532 -325.10546875 517.8203125 C-323.39126009 539.02635199 -321.40219705 560.15868413 -318.85620117 581.28149414 C-317.5217939 592.37155472 -316.31613293 603.46491373 -315.24029541 614.58303833 C-311.6024797 652.11943824 -307.06549519 688.98710232 -298.75 725.8125 C-298.50386963 726.90498047 -298.25773926 727.99746094 -298.00415039 729.12304688 C-297.65404907 730.61868164 -297.65404907 730.61868164 -297.296875 732.14453125 C-297.09416992 733.01440674 -296.89146484 733.88428223 -296.68261719 734.78051758 C-296.03802406 737.25235861 -296.03802406 737.25235861 -294 740 C-259.30329207 702.41791095 -238.15861947 650.31047933 -221.05029297 602.87744141 C-219.88545721 599.68619217 -218.66433992 596.52014198 -217.4309082 593.35498047 C-214.23807922 585.11968365 -211.85684144 576.76416124 -209.60009766 568.23828125 C-209.02705244 566.10090186 -208.43139885 563.97165632 -207.82421875 561.84375 C-202.12080982 541.84788383 -197.1878884 521.71538721 -193.1875 501.3125 C-193.04056702 500.5720343 -192.89363403 499.8315686 -192.74224854 499.06866455 C-191.02827907 490.38289423 -189.64782059 481.73473029 -188.68911743 472.93258667 C-188.26978322 469.12302977 -187.74988675 465.37996635 -187.00390625 461.62109375 C-185.60059056 454.34387994 -184.93788778 446.97420503 -184.19506836 439.60620117 C-183.94109606 437.09801412 -183.67708566 434.59102976 -183.41210938 432.08398438 C-183.24157387 430.42193785 -183.07163455 428.75983002 -182.90234375 427.09765625 C-182.82628403 426.38231216 -182.7502243 425.66696808 -182.67185974 424.9299469 C-181.13324263 409.37071162 -180.83578704 393.7213413 -180.796875 378.09765625 C-180.78993096 376.34232565 -180.78293596 374.58699525 -180.77589417 372.83166504 C-180.75673102 367.24194068 -180.75197341 361.65225334 -180.75 356.0625 C-180.74926357 355.10847668 -180.74852715 354.15445335 -180.7477684 353.17152023 C-180.72834279 322.25232066 -181.41527288 291.54554826 -183.79431152 260.7052002 C-184.06063347 257.20255289 -184.30576325 253.69857957 -184.55046082 250.19436646 C-185.22141539 240.61333744 -185.9779291 231.04095933 -186.79034424 221.47094727 C-187.00886808 218.89548312 -187.22486224 216.3198129 -187.44091797 213.74414062 C-188.99958713 195.26535249 -190.71047658 176.83425632 -193.06567383 158.43847656 C-198.36602608 116.99364957 -197.4418333 78.577782 -171 44 C-167.48852528 39.52406307 -163.80318648 35.22971206 -160 31 C-159.12988281 30.02160156 -159.12988281 30.02160156 -158.2421875 29.0234375 C-146.73626998 16.8236958 -131.69085761 7.22598608 -116.8125 -0.3125 C-115.88751709 -0.78272583 -115.88751709 -0.78272583 -114.94384766 -1.26245117 C-78.56162371 -19.11006457 -36.18664076 -16.83468914 0 0 Z " fill="#FEFEFE" transform="translate(794,22)"/>
<path d="M0 0 C14.37873175 12.32462721 18.57406469 30.31730444 20.9375 48.25 C21.10185547 49.47678467 21.26621094 50.70356934 21.43554688 51.9675293 C27.34013314 96.68303175 31.55096465 141.63571745 33.56939697 186.69549561 C33.60192566 187.42117737 33.63445435 188.14685913 33.66796875 188.89453125 C33.69945007 189.60232727 33.7309314 190.31012329 33.7633667 191.03936768 C33.93915805 194.80426035 34.19682636 198.54359102 34.578125 202.29296875 C35.32531705 209.9461353 35.44721711 217.62939101 35.625 225.3125 C35.64551422 226.18045197 35.66602844 227.04840393 35.68716431 227.94265747 C36.09694495 245.97844265 36.20311855 264.01655682 36.24372482 282.05630493 C36.24990165 284.21561905 36.25978579 286.37488521 36.27078247 288.53417969 C36.35454697 306.08346523 35.8434287 323.46945425 34.30728149 340.96237183 C34.02640258 344.23280246 33.78978498 347.50474685 33.56445312 350.77938843 C30.62549177 393.41257073 23.93159606 435.97932313 13.85986328 477.50683594 C13.00385803 481.0556146 12.17076569 484.60933113 11.33984375 488.1640625 C8.4384693 500.49630457 5.35501927 512.70011512 1.58984375 524.796875 C0.12383271 529.53160421 -1.18760714 534.30283311 -2.49291992 539.08398438 C-5.39697581 549.71316652 -8.65579768 560.10927847 -12.39453125 570.47265625 C-13.64781242 573.95299638 -14.77049425 577.44963652 -15.8125 581 C-26.09924631 615.07213441 -40.59908894 648.23135041 -56.9375 679.8125 C-57.28490234 680.48796875 -57.63230469 681.1634375 -57.99023438 681.859375 C-66.15078744 697.68235042 -75.14522324 712.80027304 -85 727.625 C-85.56278152 728.47393829 -85.56278152 728.47393829 -86.13693237 729.34002686 C-91.47781053 737.37944015 -97.07889575 745.14490325 -102.9375 752.8125 C-103.43693115 753.47564209 -103.9363623 754.13878418 -104.45092773 754.82202148 C-111.67909348 764.4113053 -119.58132269 773.19947298 -127.9375 781.8125 C-128.60007812 782.49699219 -129.26265625 783.18148437 -129.9453125 783.88671875 C-137.88529435 792.05312594 -145.86302037 799.89567517 -154.9375 806.8125 C-156.12511082 807.74074365 -157.31260285 808.66913929 -158.5 809.59765625 C-200.59038123 842.17500479 -251.50743501 866.28380552 -305.6875 859.5625 C-344.78500317 854.15092539 -376.02566168 832.34873518 -400.15527344 801.46582031 C-402.51403186 798.31088297 -404.76204546 795.09620497 -406.9375 791.8125 C-407.54078125 790.90371094 -407.54078125 790.90371094 -408.15625 789.9765625 C-420.30286628 771.35707833 -428.09340416 750.49795782 -435.9375 729.8125 C-436.25348145 728.99007812 -436.56946289 728.16765625 -436.89501953 727.3203125 C-445.23338983 705.51756491 -450.07902695 682.77585175 -453.9375 659.8125 C-454.0813916 658.98298828 -454.2252832 658.15347656 -454.37353516 657.29882812 C-456.48430501 645.12871732 -457.96021151 632.87858145 -459.45727539 620.62133789 C-460.34041248 613.41565034 -461.28902445 606.23141357 -462.4375 599.0625 C-464.08723502 588.59888213 -465.17451558 578.07156803 -466.31640625 567.54345703 C-467.51039146 556.55191939 -468.78939443 545.57309004 -470.11676025 534.59689331 C-471.07271788 526.67063115 -472.00903612 518.74202554 -472.9375 510.8125 C-473.07188477 509.6653653 -473.07188477 509.6653653 -473.20898438 508.49505615 C-476.14410383 483.32102765 -478.19406909 458.08479067 -480.11592388 432.81667709 C-480.27240881 430.76109288 -480.42998751 428.70559519 -480.58784485 426.65011597 C-480.78269184 424.10493895 -480.97486865 421.55955568 -481.16398621 419.01394653 C-481.2512648 417.87424408 -481.3385434 416.73454163 -481.4284668 415.56030273 C-481.50300583 414.56683334 -481.57754486 413.57336395 -481.65434265 412.54978943 C-481.89189416 409.83277071 -481.89189416 409.83277071 -482.44599915 407.27241516 C-482.95454349 404.72719894 -483.16707818 402.29660862 -483.31054688 399.70605469 C-483.36730591 398.71442322 -483.42406494 397.72279175 -483.48254395 396.70111084 C-483.56852844 395.1088266 -483.56852844 395.1088266 -483.65625 393.484375 C-483.71905151 392.38079651 -483.78185303 391.27721802 -483.84655762 390.14019775 C-484.04689603 386.61447828 -484.24259899 383.08852393 -484.4375 379.5625 C-484.63278289 376.05078324 -484.82914471 372.53914023 -485.02844238 369.02764893 C-485.15221425 366.84512772 -485.27367735 364.66247394 -485.39245605 362.47967529 C-485.44921509 361.47543518 -485.50597412 360.47119507 -485.56445312 359.43652344 C-485.61251099 358.56558044 -485.66056885 357.69463745 -485.71008301 356.79730225 C-485.89255625 354.40237761 -486.14036281 352.04180654 -486.42425537 349.65814209 C-487.02914464 344.33375139 -487.28420339 339.00979002 -487.52246094 333.65820312 C-487.59857636 332.03043725 -487.59857636 332.03043725 -487.67622948 330.36978722 C-487.78611055 328.01471747 -487.89473271 325.65958871 -488.0022316 323.30440903 C-488.26583838 317.53846201 -488.5384395 311.77294061 -488.80980611 306.0073545 C-488.90570028 303.96734848 -489.0012589 301.92732701 -489.09671593 299.88730049 C-491.45575664 249.48839461 -493.94303152 199.11337738 -497.9375 148.8125 C-498.02495483 147.71021057 -498.11240967 146.60792114 -498.20251465 145.472229 C-499.6522024 127.34150876 -501.33445912 109.24255007 -503.296875 91.16015625 C-503.41244751 90.08628159 -503.52802002 89.01240692 -503.64709473 87.9059906 C-504.20304589 82.74513907 -504.76974545 77.58611153 -505.36328125 72.42944336 C-506.40782299 63.11632797 -507.18082551 53.84299763 -507.328125 44.46875 C-507.36567902 43.20943665 -507.36567902 43.20943665 -507.4039917 41.92468262 C-507.41781903 31.53540178 -502.24015183 23.31727085 -495.1953125 16.00390625 C-484.53818425 6.07641541 -472.36835242 1.02066716 -457.8125 0.4375 C-446.19901299 0.85772486 -435.42035529 4.84300591 -426.8828125 12.7109375 C-415.18619017 25.34704756 -411.3455953 41.50730466 -409.5703125 58.078125 C-409.45072174 59.16495071 -409.33113098 60.25177643 -409.20791626 61.37153625 C-408.81926591 64.93448967 -408.43998322 68.49834713 -408.0625 72.0625 C-407.93121704 73.28814667 -407.79993408 74.51379333 -407.66467285 75.77658081 C-405.13830304 99.4707918 -403.24534469 123.19147479 -401.58615112 146.96011353 C-401.10509468 153.75560067 -400.53406894 160.5394069 -399.921875 167.32421875 C-398.85598523 179.22404762 -398.12389368 191.13560248 -397.4375 203.0625 C-397.30750247 205.28638929 -397.17729062 207.51026605 -397.046875 209.73413086 C-396.78993134 214.1239246 -396.53489463 218.51382307 -396.28125 222.90380859 C-395.99844852 227.7866985 -395.70521474 232.66885936 -395.40625 237.55078125 C-394.39142575 254.34851903 -393.59496382 271.15220021 -392.84171581 287.96358871 C-391.70887972 313.23871564 -390.46022295 338.50348064 -389.00365448 363.76221466 C-388.87689444 365.96704864 -388.75153001 368.17195793 -388.62652588 370.37689209 C-387.74200765 385.93575054 -386.69990088 401.45850626 -385.20352173 416.97158813 C-384.69378157 422.4152294 -384.24567081 427.86419186 -383.7890625 433.3125 C-379.79398575 481.60155103 -379.79398575 481.60155103 -374.0793457 529.7097168 C-372.90137125 538.48732282 -372.08906506 547.29595898 -371.25598145 556.11141968 C-362.41967207 662.79968274 -362.41967207 662.79968274 -313.9375 754.8125 C-311.07647082 757.13354802 -308.1861341 759.08203946 -304.9375 760.8125 C-304.00744141 761.34810547 -304.00744141 761.34810547 -303.05859375 761.89453125 C-287.32845531 768.70223389 -267.8619563 761.78875242 -253.01953125 755.9140625 C-243.98334126 752.15859232 -235.81328553 747.66000103 -227.9375 741.8125 C-226.89335938 741.05195312 -225.84921875 740.29140625 -224.7734375 739.5078125 C-216.64464691 733.48792924 -209.22673656 726.81312038 -201.9375 719.8125 C-201.41768555 719.31991699 -200.89787109 718.82733398 -200.36230469 718.31982422 C-174.47733971 693.72505029 -156.54146671 660.34593321 -140.49267578 628.85986328 C-139.23216089 626.38988731 -137.96178856 623.92568425 -136.68359375 621.46484375 C-126.42374665 601.55418157 -117.75679087 580.78784154 -109.9375 559.8125 C-109.54353027 558.76078613 -109.14956055 557.70907227 -108.74365234 556.62548828 C-102.10084633 538.78232682 -96.3762165 520.73644463 -91.015625 502.47607422 C-90.08530512 499.31475626 -89.14002397 496.15858028 -88.1875 493.00390625 C-82.51704422 474.00268534 -78.49125087 454.56508503 -74.92578125 435.0703125 C-74.27445773 431.52927702 -73.55882633 428.01016673 -72.79296875 424.4921875 C-54.81010701 340.08327883 -57.74053149 251.55135847 -63.9375 159.8125 C-64.02427002 158.54716431 -64.11104004 157.28182861 -64.20043945 155.97814941 C-66.27961382 125.99159098 -69.20475901 96.14179906 -72.85546875 66.30859375 C-74.08369969 56.10595825 -75.20786653 45.9725826 -75.3125 35.6875 C-75.32635742 34.91212891 -75.34021484 34.13675781 -75.35449219 33.33789062 C-75.2605165 22.090485 -70.44398488 14.8071887 -63.04296875 6.75 C-58.47213351 2.27530087 -53.47003651 -0.74589779 -47.8125 -3.625 C-47.14355713 -3.96732666 -46.47461426 -4.30965332 -45.78540039 -4.66235352 C-31.20656348 -11.71906405 -13.01779655 -9.31103414 0 0 Z " fill="#004AAD" transform="translate(762.9375,107.1875)"/>
</svg>
